Tells the story of seventeen year-old J (Josh) as he navigates his survival amongst an explosive criminal family and the detective who thinks he can save him.
 
http://www.imdb.com/title/tt1313092/

Subtitles (srt) : Dutch, English.

Covers included.

Animal Kingdom is het verhaal over een bloederige slag tussen de onderwereld van Melbourne en de politie. Met behulp van een politie-agent probeert een 17-jarige tienerjongen te breken met zijn criminele familie. Dit gaat niet zo gemakkelijk.
 
http://www.moviemeter.nl/film/58297

Ondertitels (srt) : Engels, Nederlands.

Hoesjes bijgevoegd.

General
Complete name                    : Animal Kingdom-AC3-XviD-BRRip[Eng]2010 2Lions-Team\Animal Kingdom-AC3-XviD-BRRip[Eng]2010 2Lions-Team.avi
Format                           : AVI
Format/Info                      : Audio Video Interleave
File size                        : 1.27 GiB
Duration                         : 1h 52mn
Overall bit rate                 : 1 616 Kbps
Writing application              : VirtualDubMod 1.5.4.1 (build 2178/release)
Writing library                  : VirtualDubMod build 2178/release
Source                           : Animal.Kingdom.2010.720p.BluRay.x264-aAF 

Video
ID                               : 0
Format                           : MPEG-4 Visual
Format profile                   : Simple@L3
Format settings, BVOP            : No
Format settings, QPel            : No
Format settings, GMC             : No warppoints
Format settings, Matrix          : Default (H.263)
Codec ID                         : XVID
Codec ID/Hint                    : XviD
Duration                         : 1h 52mn
Bit rate                         : 1 159 Kbps
Width                            : 720 pixels
Height                           : 304 pixels
Display aspect ratio             : 2.35:1
Frame rate                       : 23.976 fps
Color space                      : YUV
Chroma subsampling               : 4:2:0
Bit depth                        : 8 bits
Scan type                        : Progressive
Bits/(Pixel*Frame)               : 0.221
Stream size                      : 935 MiB (72%)
Writing library                  : XviD 1.1.2 (UTC 2006-11-01)

Audio
ID                               : 1
Format                           : AC-3
Format/Info                      : Audio Coding 3
Mode extension                   : CM (complete main)
Codec ID                         : 2000
Duration                         : 1h 52mn
Bit rate mode                    : Constant
Bit rate                         : 448 Kbps
Channel(s)                       : 6 channels
Channel positions                : Front: L C R, Side: L R, LFE
Sampling rate                    : 48.0 KHz
Bit depth                        : 16 bits
Stream size                      : 362 MiB (28%)
Alignment                        : Split accross interleaves
Interleave, duration             : 42 ms (1.00 video frame)
Interleave, preload duration     : 500 ms

Thanks to Aps for the Dutch subs.Excellent!
 
Brought to you by Gollum.

DON T HIT AND RUN Niet gelijk afhaken als de FILM binnen is blijf seeden. 

Don`t quit after you finished the download, but keep seeding

There are fake torrents from uploaders who use our team name.
Those are not ours, or members from our team.
We 2Lions-Team are not responsible for the fake posts on our name

Wij 2Lions-Team zijn niet verantwoordelijk voor die zieke FAKE posten die op onze naam worden gedaan

Please check our site !!!

to the fakers , get a life !!!